# xmcd
#
# Track frame offsets:
#	150
#	16505
#	36475
#	51897
#	68610
#	83222
#	103532
#	121500
#	140515
#	158597
#	175270
#	188562
#	202720
#	222975
#
# Disc length: 3173 seconds
#
# Revision: 0
# Processed by: cddbd v1.4PL0 Copyright (c) Steve Scherf et al.
# Submitted via: OrangeCD 4.1
#
DISCID=ab0c630e
DTITLE=Keith Urban - Keith Urban
DYEAR=1900
DGENRE=
TTITLE0=Only you
TTITLE1=Got it bad
TTITLE2=Blue stranger
TTITLE3=Without you
TTITLE4=Arms of Mary
TTITLE5=Yesterday
TTITLE6=Don't go
TTITLE7=Hold on to your dreams
TTITLE8=Lovin on the side
TTITLE9=Future plans
TTITLE10=Love we got going
TTITLE11=Clutterbilly
TTITLE12=The river
TTITLE13=What love is that way
EXTD=
EXTT0=
EXTT1=
EXTT2=
EXTT3=
EXTT4=
EXTT5=
EXTT6=
EXTT7=
EXTT8=
EXTT9=
EXTT10=
EXTT11=
EXTT12=
EXTT13=
PLAYORDER=
